<?xml version="1.0" standalone="no"?>
<!DOCTYPE svg PUBLIC "-//W3C//DTD SVG 20010904//EN"
 "http://www.w3.org/TR/2001/REC-SVG-20010904/DTD/svg10.dtd">
<svg version="1.0" xmlns="http://www.w3.org/2000/svg"
 width="700.000000pt" height="700.000000pt" viewBox="0 0 700.000000 700.000000"
 preserveAspectRatio="xMidYMid meet">
<metadata>
Created by potrace 1.11, written by Peter Selinger 2001-2013
</metadata>
<g transform="translate(0.000000,700.000000) scale(0.100000,-0.100000)"
fill="#000000" stroke="none">
<path d="M825 4938 c-44 -10 -93 -34 -123 -62 -57 -51 -85 -160 -62 -232 15
-46 411 -1112 445 -1199 13 -33 56 -148 96 -255 39 -107 77 -208 84 -225 11
-25 25 -65 30 -85 3 -8 16 -43 30 -75 7 -16 16 -41 20 -55 3 -14 12 -38 19
-55 7 -16 44 -112 81 -213 74 -199 105 -246 181 -278 57 -24 150 -22 200 4 73
37 107 89 159 240 26 75 54 151 61 167 39 94 137 387 141 427 4 40 -9 86 -112
375 -65 180 -123 339 -128 353 -6 14 -11 30 -13 35 -1 6 -20 60 -42 120 -22
61 -88 245 -147 410 -193 543 -193 543 -291 587 -46 20 -63 22 -321 22 -149 1
-288 -2 -308 -6z"/>
<path d="M3210 4940 c-47 -13 -88 -39 -122 -79 -26 -31 -56 -103 -141 -342
-60 -167 -115 -321 -123 -341 -41 -110 -48 -128 -263 -733 -67 -187 -124 -347
-128 -355 -3 -8 -23 -62 -43 -120 -21 -58 -49 -136 -63 -175 -158 -434 -167
-464 -161 -520 10 -103 82 -189 177 -212 12 -3 146 -5 297 -5 244 -1 280 1
310 17 86 43 116 82 159 205 52 146 305 826 324 873 9 20 17 41 18 45 1 4 5
16 9 27 4 11 16 46 26 77 11 32 22 58 26 58 5 0 7 -3 6 -7 -1 -5 4 -21 11 -38
6 -16 23 -61 37 -100 15 -38 36 -97 49 -130 13 -33 44 -118 70 -190 26 -71 53
-143 60 -160 7 -16 22 -55 33 -85 123 -349 146 -391 237 -435 52 -25 147 -25
197 -1 75 36 110 83 152 204 13 37 49 139 81 227 148 416 149 420 124 496 -19
57 -128 364 -192 539 -33 91 -66 183 -73 205 -7 22 -29 85 -49 140 -38 105
-156 432 -232 645 -24 69 -55 143 -68 166 -26 45 -83 87 -137 102 -39 11 -570
13 -608 2z"/>
<path d="M5595 4938 c-69 -15 -129 -59 -159 -117 -8 -15 -47 -118 -86 -227
-39 -109 -75 -208 -80 -219 -4 -11 -25 -67 -45 -125 -20 -58 -41 -114 -45
-125 -4 -11 -31 -85 -60 -165 -29 -80 -56 -154 -60 -165 -5 -11 -56 -155 -115
-320 -107 -302 -140 -393 -155 -430 -5 -11 -25 -67 -45 -125 -21 -58 -53 -148
-72 -200 -19 -52 -38 -106 -43 -120 -5 -14 -29 -82 -53 -152 -49 -140 -52
-177 -18 -254 11 -23 35 -58 55 -77 61 -60 88 -64 401 -63 250 2 284 4 315 20
77 40 105 80 159 226 18 47 39 100 47 118 7 18 14 37 14 43 0 6 6 25 14 42 13
29 59 154 331 892 53 143 109 296 126 340 36 94 49 129 124 335 32 85 83 225
115 310 112 298 116 316 93 393 -21 70 -55 112 -120 144 l-56 27 -273 0 c-150
1 -289 -2 -309 -6z"/>
</g>
</svg>
